<svg xmlns="http://www.w3.org/2000/svg" xml:space="preserve" style="shape-rendering:geometricPrecision;text-rendering:geometricPrecision;image-rendering:optimizeQuality" viewBox="0 0 437 548.75" fill-rule="evenodd" clip-rule="evenodd"><defs><style>.fil0{fill:#fff}</style></defs><path class="fil0" d="M147 144c44 129 19 103 148 147-129 44-104 19-148 148-44-129-19-104-147-148 128-44 103-18 147-147zM339 74c29 85 13 69 98 98-85 29-69 12-98 97-29-85-12-68-97-97 85-29 68-13 97-98zM213 0c19 55 8 44 63 63-55 19-44 8-63 63-19-55-8-44-63-63 55-19 44-8 63-63z"/></svg>